<?xml version="1.0" encoding="utf-8"?>
<!-- Generator: Adobe Illustrator 19.0.0, SVG Export Plug-In . SVG Version: 6.00 Build 0)  -->
<svg version="1.1" id="spacex-logo" xmlns="http://www.w3.org/2000/svg" xmlns:xlink="http://www.w3.org/1999/xlink" x="0px"
	 y="0px" viewBox="0 0 715.1 87.3" style="enable-background:new 0 0 715.1 87.3;" xml:space="preserve">
<path id="s" d="M0,76.8c21.8,0,43.5,0,65.2,0c0-4.2,0-8.3,0-12.6c-0.5,0-0.9,0-1.4,0c-16,0-31.9,0-47.9,0c-3,0-5.8-0.5-8.4-1.9
	c-3.4-1.8-5.5-4.6-5.7-8.6c-0.1-3.6-0.1-7.3,0-10.9c0.2-4.9,2.9-8,7.4-9.6c2.7-1,5.5-1.3,8.4-1.3c15,0,30.1,0,45.1,0
	c4,0,7.8,0.8,11.1,3.1c2.3,1.6,4,3.7,4.9,6.6c-20.6,0-41.1,0-61.6,0c0,3.9,0,7.8,0,11.8c0.5,0,1,0,1.5,0c15.2,0,30.4,0,45.6,0
	c3.7,0,7.2,0.7,10.5,2.5c3.7,2.1,5.6,5.4,5.6,9.7c0,3,0,6,0,9c0,7.4-3.7,11.5-11.1,12.3c-1.5,0.2-3,0.2-4.5,0.2
	c-16.4,0-32.8,0-49.2,0c-3.8,0-7.5-0.6-10.7-2.9C2.2,82.6,0.7,80.1,0,76.8z"/>
<path id="p" d="M120.3,87.2c-5.7,0-11.2,0-16.7,0c0-18.4,0-36.7,0-55.2c0.4,0,0.9-0.1,1.3-0.1c19.4,0,38.7,0,58.1,0
	c4.3,0,8.5,0.6,12.3,2.6c4.7,2.5,7.2,6.3,7.1,11.7c0,2,0,4,0,6c0,7-3.4,11.4-10.3,12.9c-2.7,0.6-5.5,0.9-8.3,0.9c-14,0.1-28,0-42,0
	c-0.5,0-0.9,0-1.6,0C120.3,73.2,120.3,80.2,120.3,87.2z M120.4,55.8c0.4,0,0.6,0,0.9,0c13.4,0,26.9,0,40.3,0c1,0,1.9-0.1,2.8-0.3
	c1.9-0.4,3.2-1.5,3.3-3.6c0.1-2.1,0.2-4.2,0-6.2c-0.1-1.9-1.3-3.2-3.2-3.6c-1.3-0.3-2.7-0.5-4-0.5c-12.9,0-25.9,0-38.8,0
	c-0.4,0-0.9,0-1.4,0C120.4,46.4,120.4,51.1,120.4,55.8z"/>
<path id="c" d="M306,76.8c20.8,0,41.5,0,62.2,0c0.2,3.1-2.7,7.3-6,8.8c-2.4,1.1-4.9,1.4-7.5,1.6c-0.6,0-1.1,0-1.7,0
	c-16.3,0-32.6,0-48.8,0c-3.9,0-7.6-0.7-10.9-3c-2.9-2-4.4-4.9-4.4-8.4c-0.1-10.8-0.1-21.7,0-32.5c0.1-4.9,2.8-8.1,7.2-9.9
	c2.7-1.1,5.5-1.5,8.4-1.5c15.8,0,31.5,0,47.3,0c3.3,0,6.6,0.4,9.7,1.8c3.1,1.3,5.4,3.5,6.5,6.7c0.1,0.4,0.2,0.8,0.4,1.2
	c-20.9,0-41.6,0-62.4,0C306,53.4,306,65,306,76.8z"/>
<path id="a" d="M238.1,65.7c-0.4-0.6-0.7-1-1-1.4c-5.1-7-10.2-14-15.3-21c-0.7-0.9-0.6-1.4,0.1-2.2c2.9-3.4,5.7-6.9,8.5-10.4
	c0.2-0.3,0.5-0.6,0.9-1c14.2,19.2,28.3,38.3,42.6,57.6c-0.4,0-0.7,0-0.9,0c-6,0-12.1,0-18.1,0c-0.7,0-1.1-0.2-1.6-0.8
	c-2.5-3.4-5-6.8-7.4-10.3c-0.6-0.8-1.1-1-2.1-1c-16.2,0-32.3,0-48.5,0c-0.5,0-0.9,0-1.7,0c3-3.2,5.8-6.2,8.6-9.1
	c0.3-0.3,0.9-0.3,1.4-0.4c11,0,22,0,33,0C237.1,65.7,237.5,65.7,238.1,65.7z"/>
<g id="e">
	<path id="XMLID_62_" d="M466,87.2c-24.9,0-49.7,0-74.6,0c0-12.2,0-24.4,0-36.6c16.8,0,33.7,0,50.5,0c0,3.1,0,6.2,0,9.4
		c-11.1,0-22.3,0-33.5,0c0,5.7,0,11.2,0,16.9c19.2,0,38.3,0,57.5,0C466,80.4,466,83.7,466,87.2z"/>
	<path id="XMLID_60_" d="M466.8,32c0,3.2,0,6.3,0,9.5c-25.1,0-50.2,0-75.4,0c0-3.2,0-6.3,0-9.5C416.5,32,441.6,32,466.8,32z"/>
</g>
<g id="x">
	<path id="rocket" d="M487.1,87c3-2.8,5.9-5.7,9-8.4c16.6-14.8,35.1-26.9,54.9-37.1c28.4-14.6,58.4-24.7,89.5-31.5
		c14.2-3.1,28.5-5.6,42.9-7.2c9-1,18-1.7,27-2.6c1.6-0.1,3.2-0.2,4.8-0.2c-10.9,1-21.8,2.5-32.6,4.5c-24,4.4-47.4,10.9-70.1,19.8
		c-22.9,9-44.6,20.2-64.7,34.4c-11.8,8.3-22.9,17.5-33.2,27.8c-0.6,0.6-1.1,0.8-2,0.8c-8.1,0-16.2,0-24.2,0c-0.4,0-0.7,0-1.1,0
		C487.2,87.2,487.1,87.1,487.1,87z"/>
	<path id="XMLID_59_" d="M539.8,70.1c0.9-0.7,1.7-1.3,2.5-1.9c3.3-2.5,6.7-4.9,10.1-7.4c0.5-0.4,0.9-0.5,1.5-0.1
		c11.8,8.7,23.5,17.4,35.3,26c0.1,0.1,0.3,0.1,0.4,0.2c-0.1,0.1-0.1,0.2-0.2,0.3c-0.3,0-0.6,0-0.9,0c-8.1,0-16.2,0-24.3,0
		c-0.5,0-1.1-0.1-1.4-0.4c-7.5-5.4-14.9-10.8-22.4-16.3C540.2,70.5,540,70.3,539.8,70.1z"/>
	<path id="XMLID_58_" d="M488.9,32c0.5,0,0.9,0,1.3,0c7.9,0,15.8,0,23.7,0c0.6,0,1.3,0.1,1.8,0.5c6,4.2,11.9,8.5,17.9,12.7
		c0.2,0.1,0.3,0.3,0.5,0.4c-3.6,2.2-7.1,4.4-10.7,6.7c-1,0.7-2.1,1.4-3.1,2c-0.3,0.2-0.9,0.2-1.1,0c-10-7.3-20.1-14.7-30.1-22
		C489.1,32.3,489.1,32.2,488.9,32z"/>
</g>
</svg>
